HIERARCHY
ROOT hip
{
  OFFSET 0 0 0
  CHANNELS 6 Xposition Yposition Zposition Zrotation Yrotation Xrotation
  JOINT abdomen
  {
    OFFSET 0 20.6881 -0.73152
    CHANNELS 3 Zrotation Xrotation Yrotation
    JOINT chest
    {
      OFFSET 0 11.7043 -0.48768
      CHANNELS 3 Zrotation Xrotation Yrotation
      JOINT neck
      {
        OFFSET 0 22.1894 -2.19456
        CHANNELS 3 Zrotation Xrotation Yrotation
        JOINT head
        {
          OFFSET -0.24384 7.07133 1.2192
          CHANNELS 3 Zrotation Xrotation Yrotation
          JOINT leftEye
          {
            OFFSET 4.14528 8.04674 8.04672
            CHANNELS 3 Zrotation Xrotation Yrotation
            End Site
            {
              OFFSET 1 0 0
            }
          }
          JOINT rightEye
          {
            OFFSET -3.6576 8.04674 8.04672
            CHANNELS 3 Zrotation Xrotation Yrotation
            End Site
            {
              OFFSET 1 0 0
            }
          }
        }
      }
      JOINT rCollar
      {
        OFFSET -2.68224 19.2634 -4.8768
        CHANNELS 3 Zrotation Xrotation Yrotation
        JOINT rShldr
        {
          OFFSET -8.77824 -1.95073 1.46304
          CHANNELS 3 Zrotation Xrotation Yrotation
          JOINT rForeArm
          {
            OFFSET -28.1742 -1.7115 0.48768
            CHANNELS 3 Zrotation Xrotation Yrotation
            JOINT rHand
            {
              OFFSET -22.5879 0.773209 7.07136
              CHANNELS 3 Zrotation Xrotation Yrotation
              JOINT rThumb1
              {
                OFFSET -1.2192 -0.487915 3.41376
                CHANNELS 3 Zrotation Xrotation Yrotation
                JOINT rThumb2
                {
                  OFFSET -3.37035 -0.52449 3.41376
                  CHANNELS 3 Zrotation Xrotation Yrotation
                  End Site
                  {
                    OFFSET -1.78271 -1.18214 1.43049
                  }
                }
              }
              JOINT rIndex1
              {
                OFFSET -7.75947 0.938293 5.60832
                CHANNELS 3 Zrotation Xrotation Yrotation
                JOINT rIndex2
                {
                  OFFSET -2.54057 -0.884171 1.56538
                  CHANNELS 3 Zrotation Xrotation Yrotation
                  End Site
                  {
                    OFFSET -1.62519 -0.234802 1.16502
                  }
                }
              }
              JOINT rMid1
              {
                OFFSET -8.24714 1.18213 3.41376
                CHANNELS 3 Zrotation Xrotation Yrotation
                JOINT rMid2
                {
                  OFFSET -3.10165 -0.590103 1.0647
                  CHANNELS 3 Zrotation Xrotation Yrotation
                  End Site
                  {
                    OFFSET -2.48547 -0.328903 0.83742
                  }
                }
              }
              JOINT rRing1
              {
                OFFSET -8.82822 0.546677 1.51678
                CHANNELS 3 Zrotation Xrotation Yrotation
                JOINT rRing2
                {
                  OFFSET -2.60934 -0.819778 -0.0198488
                  CHANNELS 3 Zrotation Xrotation Yrotation
                  End Site
                  {
                    OFFSET -2.33842 -0.294052 0.168128
                  }
                }
              }
              JOINT rPinky1
              {
                OFFSET -8.27202 -0.0477905 -0.4584
                CHANNELS 3 Zrotation Xrotation Yrotation
                JOINT rPinky2
                {
                  OFFSET -1.82734 -0.647385 -0.700984
                  CHANNELS 3 Zrotation Xrotation Yrotation
                  End Site
                  {
                    OFFSET -1.69225 -0.51767 -0.607171
                  }
                }
              }
            }
          }
        }
      }
      JOINT lCollar
      {
        OFFSET 2.68224 19.2634 -4.8768
        CHANNELS 3 Zrotation Xrotation Yrotation
        JOINT lShldr
        {
          OFFSET 8.77824 -1.95073 1.46304
          CHANNELS 3 Zrotation Xrotation Yrotation
          JOINT lForeArm
          {
            OFFSET 28.1742 -1.7115 0.48768
            CHANNELS 3 Zrotation Xrotation Yrotation
            JOINT lHand
            {
              OFFSET 22.5879 0.773209 7.07136
              CHANNELS 3 Zrotation Xrotation Yrotation
              JOINT lThumb1
              {
                OFFSET 1.2192 -0.487915 3.41376
                CHANNELS 3 Zrotation Xrotation Yrotation
                JOINT lThumb2
                {
                  OFFSET 3.37035 -0.52449 3.41376
                  CHANNELS 3 Zrotation Xrotation Yrotation
                  End Site
                  {
                    OFFSET 1.78271 -1.18214 1.43049
                  }
                }
              }
              JOINT lIndex1
              {
                OFFSET 7.75947 0.938293 5.60832
                CHANNELS 3 Zrotation Xrotation Yrotation
                JOINT lIndex2
                {
                  OFFSET 2.54057 -0.884171 1.56538
                  CHANNELS 3 Zrotation Xrotation Yrotation
                  End Site
                  {
                    OFFSET 1.62519 -0.234802 1.16502
                  }
                }
              }
              JOINT lMid1
              {
                OFFSET 8.24714 1.18213 3.41376
                CHANNELS 3 Zrotation Xrotation Yrotation
                JOINT lMid2
                {
                  OFFSET 3.10165 -0.590103 1.0647
                  CHANNELS 3 Zrotation Xrotation Yrotation
                  End Site
                  {
                    OFFSET 2.48547 -0.328903 0.83742
                  }
                }
              }
              JOINT lRing1
              {
                OFFSET 8.82822 0.546677 1.51678
                CHANNELS 3 Zrotation Xrotation Yrotation
                JOINT lRing2
                {
                  OFFSET 2.60934 -0.819778 -0.0198488
                  CHANNELS 3 Zrotation Xrotation Yrotation
                  End Site
                  {
                    OFFSET 2.33842 -0.294052 0.168128
                  }
                }
              }
              JOINT lPinky1
              {
                OFFSET 8.27202 -0.0477905 -0.4584
                CHANNELS 3 Zrotation Xrotation Yrotation
                JOINT lPinky2
                {
                  OFFSET 1.82734 -0.647385 -0.700984
                  CHANNELS 3 Zrotation Xrotation Yrotation
                  End Site
                  {
                    OFFSET 1.69225 -0.51767 -0.607171
                  }
                }
              }
            }
          }
        }
      }
    }
  }
  JOINT rButtock
  {
    OFFSET -8.77824 4.35084 1.2192
    CHANNELS 3 Zrotation Xrotation Yrotation
    JOINT rThigh
    {
      OFFSET 0 -1.70687 -2.19456
      CHANNELS 3 Zrotation Xrotation Yrotation
      JOINT rShin
      {
        OFFSET 0 -36.8199 0.73152
        CHANNELS 3 Zrotation Xrotation Yrotation
        JOINT rFoot
        {
          OFFSET 0.73152 -45.1104 -5.12064
          CHANNELS 3 Zrotation Xrotation Yrotation
          End Site
          {
            OFFSET -1.1221 -3.69964 12.103
          }
        }
      }
    }
  }
  JOINT lButtock
  {
    OFFSET 8.77824 4.35084 1.2192
    CHANNELS 3 Zrotation Xrotation Yrotation
    JOINT lThigh
    {
      OFFSET 0 -1.70687 -2.19456
      CHANNELS 3 Zrotation Xrotation Yrotation
      JOINT lShin
      {
        OFFSET 0 -36.8199 0.73152
        CHANNELS 3 Zrotation Xrotation Yrotation
        JOINT lFoot
        {
          OFFSET -0.73152 -45.1104 -5.12064
          CHANNELS 3 Zrotation Xrotation Yrotation
          End Site
          {
            OFFSET 1.1221 -3.69964 12.103
          }
        }
      }
    }
  }
}
MOTION
Frames:	4
Frame Time:	0.00833333
48.1718 82.9177 84.1917 -174.852 37.1058 -159.881 4.01721 28.8767 -7.76798 0.92997 -8.76672 -1.3077 4.75157 14.2835 1.40226 -2.50768 -42.8358 2.26327 -0.0 0.0 0.0 -0.0 0.0 0.0 1.0498e-13 7.14054e-13 4.20032e-13 81.7353 35.7838 -19.3935 -20.6238 -13.8171 40.2166 -0.0183398 -3.86327 -0.54378 -1.27009e-10 1.62195e-09 8.37106e-10 -2.2151e-10 2.8159e-09 1.45657e-09 -1.27006e-10 1.62195e-09 8.37103e-10 7.73091 5.47488 0.417314 -1.27009e-10 1.62195e-09 8.37106e-10 2.90554 0.965183 0.102902 -1.27001e-10 1.62195e-09 8.37106e-10 10.2786 0.731801 0.0259123 -1.27002e-10 1.62195e-09 8.37116e-10 2.22167 -0.733487 -0.20892 1.04993e-13 7.14017e-13 4.19634e-13 -66.7828 40.23 -2.62543 26.8665 -25.9018 -60.7238 6.18159e-06 0.0710022 -0.00997872 -6.10622e-10 -1.96023e-09 -2.14401e-09 -1.0585e-09 -3.38343e-09 -3.70572e-09 -6.10631e-10 -1.96022e-09 -2.14398e-09 -7.73091 5.47488 -0.417314 -6.1062e-10 -1.96022e-09 -2.144e-09 -2.90554 0.965183 -0.102902 -6.1063e-10 -1.96022e-09 -2.144e-09 -10.2786 0.731801 -0.0259123 -6.10618e-10 -1.96022e-09 -2.144e-09 -2.22167 -0.733487 0.20892 -2.03217e-16 0.0 -3.88251e-19 2.59506 -34.8976 14.6341 -0.250903 33.8848 0.545643 -2.23674 -14.9084 -4.72802 2.03217e-16 0.0 3.88251e-19 -5.46981 -30.1536 -19.6236 0.168805 33.9911 -0.632064 -3.90712 -16.9001 -12.091
48.5913 83.1501 83.6672 -175.287 36.4245 -159.902 4.55381 28.7126 -7.86476 1.07147 -8.70134 -1.28105 4.75291 14.3848 1.16997 -3.12918 -43.037 1.54142 -0.0 0.0 0.0 -0.0 0.0 0.0 2.82917e-14 7.49248e-13 5.37089e-13 81.2337 35.651 -19.3639 -20.5102 -13.6678 39.9318 -0.0207883 -4.12446 -0.580658 -3.63332e-10 2.00354e-09 1.17262e-09 -6.33993e-10 3.47463e-09 2.0373e-09 -3.63328e-10 2.00355e-09 1.17262e-09 7.73091 5.47488 0.417314 -3.63332e-10 2.00354e-09 1.17262e-09 2.90554 0.965183 0.102902 -3.63325e-10 2.00354e-09 1.17262e-09 10.2786 0.731801 0.0259123 -3.63326e-10 2.00354e-09 1.17263e-09 2.22167 -0.733487 -0.20892 2.8319e-14 7.49217e-13 5.36725e-13 -66.6221 41.5013 -3.16627 27.2403 -27.1461 -62.6692 5.26267e-05 -0.171087 0.0240494 -4.18726e-10 -2.65639e-09 -2.56477e-09 -7.27518e-10 -4.58681e-09 -4.43214e-09 -4.18735e-10 -2.65638e-09 -2.56474e-09 -7.73091 5.47488 -0.417314 -4.18724e-10 -2.65638e-09 -2.56476e-09 -2.90554 0.965183 -0.102902 -4.18733e-10 -2.65639e-09 -2.56476e-09 -10.2786 0.731801 -0.0259123 -4.18722e-10 -2.65638e-09 -2.56476e-09 -2.22167 -0.733487 0.20892 -2.03217e-16 0.0 -3.88251e-19 2.18177 -35.2762 15.0796 -0.220599 31.8108 0.517817 -2.42433 -14.9818 -5.22288 2.03217e-16 0.0 3.88251e-19 -5.35111 -29.6204 -19.3076 0.153515 33.1013 -0.62618 -4.13685 -16.416 -13.0185
49.0222 83.3649 83.1305 -175.728 35.8223 -159.925 5.00709 28.4763 -7.84786 1.18514 -8.59968 -1.23452 4.78371 14.4827 0.922956 -3.80401 -43.1926 0.762142 -0.0 0.0 0.0 -0.0 0.0 0.0 -8.82619e-14 6.60673e-13 6.10651e-13 80.7486 35.4566 -19.3073 -20.3802 -13.498 39.6098 -0.0238178 -4.4203 -0.622462 -5.60191e-10 2.2226e-09 1.54715e-09 -9.79084e-10 3.85139e-09 2.6859e-09 -5.60187e-10 2.22261e-09 1.54714e-09 7.73091 5.47488 0.417314 -5.60191e-10 2.2226e-09 1.54715e-09 2.90554 0.965183 0.102902 -5.60185e-10 2.2226e-09 1.54715e-09 10.2786 0.731801 0.0259123 -5.60188e-10 2.2226e-09 1.54715e-09 2.22167 -0.733487 -0.20892 -8.82087e-14 6.6065e-13 6.10362e-13 -66.5103 42.7069 -3.51832 27.5705 -28.4252 -64.6379 0.000485983 -0.454932 0.0639515 -1.52181e-10 -2.70363e-09 -2.45303e-09 -2.67462e-10 -4.66976e-09 -4.23795e-09 -1.52189e-10 -2.70362e-09 -2.45301e-09 -7.73091 5.47488 -0.417314 -1.52177e-10 -2.70362e-09 -2.45302e-09 -2.90554 0.965183 -0.102902 -1.52185e-10 -2.70363e-09 -2.45302e-09 -10.2786 0.731801 -0.0259123 -1.52176e-10 -2.70362e-09 -2.45303e-09 -2.22167 -0.733487 0.20892 -2.03217e-16 0.0 -3.88251e-19 1.70022 -35.6584 15.3943 -0.195006 29.7844 0.490992 -2.56933 -14.9296 -5.6416 2.03217e-16 0.0 3.88251e-19 -5.18647 -29.0956 -18.7974 0.139346 32.1993 -0.617527 -4.39416 -15.9162 -14.0643
49.4663 83.559 82.5816 -176.174 35.2933 -159.963 5.39013 28.2104 -7.74861 1.27575 -8.48203 -1.17389 4.83859 14.5686 0.66263 -4.53739 -43.2841 -0.0713911 -0.0 0.0 0.0 -0.0 0.0 0.0 -1.94876e-13 5.14897e-13 6.31033e-13 80.2907 35.2 -19.2479 -20.2401 -13.3169 39.2659 -0.0268884 -4.68862 -0.660419 -7.50347e-10 2.15313e-09 1.81611e-09 -1.31151e-09 3.72926e-09 3.1516e-09 -7.50342e-10 2.15313e-09 1.8161e-09 7.73091 5.47488 0.417314 -7.50346e-10 2.15313e-09 1.81611e-09 2.90554 0.965183 0.102902 -7.50342e-10 2.15313e-09 1.8161e-09 10.2786 0.731801 0.0259123 -7.50348e-10 2.15313e-09 1.81611e-09 2.22167 -0.733487 -0.20892 -1.948e-13 5.14884e-13 6.30828e-13 -66.48 43.811 -3.67824 27.8286 -29.6293 -66.5566 0.00108963 -0.794874 0.111735 2.55154e-11 -2.19889e-09 -1.88291e-09 3.87733e-11 -3.79925e-09 -3.25178e-09 2.55088e-11 -2.19888e-09 -1.8829e-09 -7.73091 5.47488 -0.417314 2.55199e-11 -2.19887e-09 -1.88291e-09 -2.90554 0.965183 -0.102902 2.55132e-11 -2.19889e-09 -1.88291e-09 -10.2786 0.731801 -0.0259123 2.55205e-11 -2.19887e-09 -1.88291e-09 -2.22167 -0.733487 0.20892 -2.03217e-16 0.0 -3.88251e-19 1.1823 -36.0291 15.5476 -0.174352 27.926 0.468076 -2.70711 -14.8089 -6.06783 2.03217e-16 0.0 3.88251e-19 -5.02228 -28.5646 -18.1861 0.126456 31.338 -0.608871 -4.64873 -15.3983 -15.1596
